solid simple_cap
facet normal -0.213537932819951 -0.515526173495035 0.829839933775514
outer loop
vertex 16.5942581431715 20.0243757866458 60.0
vertex 9.09427314317143 7.03402071064117 50.0
vertex 12.711980231205 5.53551737008438 50.0
endloop
endfacet
facet normal 0.213537932819952 0.515526173495035 -0.829839933775513
outer loop
vertex 16.5942581431715 20.0243757866458 58.3999967999935
vertex 13.3331459394511 7.85373935317833 50.0
vertex 10.2942731431715 9.112481679724 50.0
endloop
endfacet
facet normal -0.0728338122538234 -0.553227728972461 0.829839933775514
outer loop
vertex 16.5942581431715 20.0243757866458 60.0
vertex 12.711980231205 5.53551737008438 50.0
vertex 16.5942581431715 5.02440578664563 50.0
endloop
endfacet
facet normal -1.18496061633352e-015 0.554700964272477 -0.832049782305833
outer loop
vertex 16.5942581431715 7.42440578664578 50.0
vertex 13.3331459394511 7.85373935317833 50.0
vertex 16.5942581431715 20.0243757866458 58.3999967999935
endloop
endfacet
facet normal 0.707106781186546 -0.707106781186549 -5.6944642772639e-016
outer loop
vertex 7.68473391342443 28.9339000163929 1.69197988952874e-014
vertex 5.68236403624969 26.3243607866459 50.0
vertex 5.68236403624967 26.3243607866459 2.25597318603832e-014
endloop
endfacet
facet normal 0.866025403784439 -0.499999999999999 -3.90903899403117e-016
outer loop
vertex 5.68236403624969 26.3243607866459 50.0
vertex 7.68473391342443 28.9339000163929 1.69197988952874e-014
vertex 7.68473391342445 28.9339000163929 50.0
endloop
endfacet
facet normal 0.866025403784439 -0.499999999999999 -3.90903899403118e-016
outer loop
vertex 5.68236403624967 26.3243607866459 2.25597318603832e-014
vertex 4.42362170970406 23.2854879903663 50.0
vertex 4.42362170970404 23.2854879903663 1.69197988952874e-014
endloop
endfacet
facet normal 0.965925826289069 -0.258819045102519 -4.65293266389522e-016
outer loop
vertex 4.42362170970406 23.2854879903663 50.0
vertex 5.68236403624967 26.3243607866459 2.25597318603832e-014
vertex 5.68236403624969 26.3243607866459 50.0
endloop
endfacet
facet normal 1.0 -4.73179935458851e-015 -5.34347720186286e-016
outer loop
vertex 3.99428814317149 20.0243757866458 1.69197988952874e-014
vertex 4.42362170970406 23.2854879903663 50.0
vertex 3.99428814317152 20.0243757866458 50.0
endloop
endfacet
facet normal 0.965925826289069 -0.258819045102519 -4.65293266389522e-016
outer loop
vertex 4.42362170970406 23.2854879903663 50.0
vertex 3.99428814317149 20.0243757866458 1.69197988952874e-014
vertex 4.42362170970404 23.2854879903663 1.69197988952874e-014
endloop
endfacet
facet normal 0.965925826289069 0.25881904510252 -5.07316020119028e-016
outer loop
vertex 4.42362170970399 16.7632635829254 1.69197988952874e-014
vertex 3.99428814317152 20.0243757866458 50.0
vertex 4.42362170970404 16.7632635829254 50.0
endloop
endfacet
facet normal 1.0 -4.65159936552768e-015 -5.34347720186286e-016
outer loop
vertex 3.99428814317152 20.0243757866458 50.0
vertex 4.42362170970399 16.7632635829254 1.69197988952874e-014
vertex 3.99428814317149 20.0243757866458 1.69197988952874e-014
endloop
endfacet
facet normal 0.965925826289069 0.25881904510252 -5.07316020119028e-016
outer loop
vertex 4.42362170970399 16.7632635829254 1.69197988952874e-014
vertex 5.68236403624969 13.7243907866458 50.0
vertex 5.68236403624967 13.7243907866458 1.69197988952874e-014
endloop
endfacet
facet normal 0.866025403784438 0.5 -4.08331322180709e-016
outer loop
vertex 5.68236403624969 13.7243907866458 50.0
vertex 4.42362170970399 16.7632635829254 1.69197988952874e-014
vertex 4.42362170970404 16.7632635829254 50.0
endloop
endfacet
facet normal 0.866025403784438 0.5 -4.08331322180709e-016
outer loop
vertex 5.68236403624967 13.7243907866458 1.69197988952874e-014
vertex 7.68473391342445 11.1148515568987 50.0
vertex 7.68473391342443 11.1148515568987 1.12798659301916e-014
endloop
endfacet
facet normal 0.707106781186548 0.707106781186547 -3.87851231800731e-016
outer loop
vertex 7.68473391342445 11.1148515568987 50.0
vertex 5.68236403624967 13.7243907866458 1.69197988952874e-014
vertex 5.68236403624969 13.7243907866458 50.0
endloop
endfacet
facet normal 0.707106781186548 0.707106781186547 -3.87851231800731e-016
outer loop
vertex 7.68473391342445 11.1148515568987 50.0
vertex 10.2942731431715 9.112481679724 1.12798659301916e-014
vertex 7.68473391342443 11.1148515568987 1.12798659301916e-014
endloop
endfacet
facet normal 0.500000000000001 0.866025403784438 -3.81982377092282e-016
outer loop
vertex 10.2942731431715 9.112481679724 1.12798659301916e-014
vertex 7.68473391342445 11.1148515568987 50.0
vertex 10.2942731431715 9.112481679724 50.0
endloop
endfacet
facet normal 0.500000000000001 0.866025403784438 -3.81982377092282e-016
outer loop
vertex 10.2942731431715 9.112481679724 50.0
vertex 13.3331459394511 7.85373935317833 1.12798659301916e-014
vertex 10.2942731431715 9.112481679724 1.12798659301916e-014
endloop
endfacet
facet normal 0.258819045102522 0.965925826289068 -7.93538151588317e-018
outer loop
vertex 13.3331459394511 7.85373935317833 1.12798659301916e-014
vertex 10.2942731431715 9.112481679724 50.0
vertex 13.3331459394511 7.85373935317833 50.0
endloop
endfacet
facet normal 0.258819045102522 0.965925826289068 -7.93538151588317e-018
outer loop
vertex 13.3331459394511 7.85373935317833 1.12798659301916e-014
vertex 16.5942581431715 7.42440578664578 50.0
vertex 16.5942581431715 7.42440578664583 5.63993296509579e-015
endloop
endfacet
facet normal -2.40599967182466e-016 1.0 4.36422780009237e-016
outer loop
vertex 16.5942581431715 7.42440578664578 50.0
vertex 13.3331459394511 7.85373935317833 1.12798659301916e-014
vertex 13.3331459394511 7.85373935317833 50.0
endloop
endfacet
facet normal -2.40599967182466e-016 1.0 4.36422780009237e-016
outer loop
vertex 16.5942581431715 7.42440578664578 50.0
vertex 19.8553703468919 7.85373935317833 5.63993296509579e-015
vertex 16.5942581431715 7.42440578664583 5.63993296509579e-015
endloop
endfacet
facet normal -0.258819045102522 0.965925826289068 4.00122885650279e-016
outer loop
vertex 19.8553703468919 7.85373935317833 5.63993296509579e-015
vertex 16.5942581431715 7.42440578664578 50.0
vertex 19.8553703468919 7.85373935317833 50.0
endloop
endfacet
facet normal -0.258819045102522 0.965925826289068 4.00122885650279e-016
outer loop
vertex 19.8553703468919 7.85373935317833 50.0
vertex 22.8942431431715 9.112481679724 5.63993296509579e-015
vertex 19.8553703468919 7.85373935317833 5.63993296509579e-015
endloop
endfacet
facet normal -0.499999999999998 0.86602540378444 4.06082956664031e-016
outer loop
vertex 22.8942431431715 9.112481679724 5.63993296509579e-015
vertex 19.8553703468919 7.85373935317833 50.0
vertex 22.8942431431715 9.112481679724 50.0
endloop
endfacet
facet normal -0.499999999999998 0.86602540378444 4.06082956664031e-016
outer loop
vertex 22.8942431431715 9.112481679724 50.0
vertex 25.5037823729186 11.1148515568987 5.63993296509579e-015
vertex 22.8942431431715 9.112481679724 5.63993296509579e-015
endloop
endfacet
facet normal -0.707106781186548 0.707106781186547 6.36899134842682e-016
outer loop
vertex 25.5037823729186 11.1148515568987 5.63993296509579e-015
vertex 22.8942431431715 9.112481679724 50.0
vertex 25.5037823729186 11.1148515568987 50.0
endloop
endfacet
facet normal -0.866025403784442 0.499999999999994 8.68487671839499e-016
outer loop
vertex 27.5061522500934 13.7243907866458 50.0
vertex 25.5037823729186 11.1148515568987 5.63993296509579e-015
vertex 25.5037823729186 11.1148515568987 50.0
endloop
endfacet
facet normal -0.707106781186548 0.707106781186547 6.36899134842682e-016
outer loop
vertex 25.5037823729186 11.1148515568987 5.63993296509579e-015
vertex 27.5061522500934 13.7243907866458 50.0
vertex 27.5061522500933 13.7243907866458 0.0
endloop
endfacet
facet normal -0.5 -0.866025403784438 -1.42486110978831e-016
outer loop
vertex 9.09427314317143 7.03402071064117 50.0
vertex 5.98767763857659 9.41779528205093 1.12798659301916e-014
vertex 9.09427314317139 7.0340207106412 1.12798659301916e-014
endloop
endfacet
facet normal -0.70710678118655 -0.707106781186545 -2.16708092161559e-017
outer loop
vertex 5.98767763857659 9.41779528205093 1.12798659301916e-014
vertex 9.09427314317143 7.03402071064117 50.0
vertex 5.98767763857661 9.41779528205088 50.0
endloop
endfacet
facet normal -0.86602540378444 -0.499999999999998 1.64502548726991e-016
outer loop
vertex 3.60390306716691 12.5243907866457 50.0
vertex 5.98767763857659 9.41779528205093 1.12798659301916e-014
vertex 5.98767763857661 9.41779528205088 50.0
endloop
endfacet
facet normal -0.70710678118655 -0.707106781186545 -2.16708092161559e-017
outer loop
vertex 5.98767763857659 9.41779528205093 1.12798659301916e-014
vertex 3.60390306716691 12.5243907866457 50.0
vertex 3.60390306716689 12.5243907866457 1.69197988952874e-014
endloop
endfacet
facet normal 0.535799987258236 -0.143567173890451 0.832049782305833
outer loop
vertex 31.0831165597329 16.1420978746793 50.0
vertex 16.5942581431715 20.0243757866458 60.0
vertex 29.5846132191761 12.5243907866457 50.0
endloop
endfacet
facet normal -0.965925826289068 -0.258819045102522 2.89178495085602e-016
outer loop
vertex 2.10539972661012 16.1420978746793 50.0
vertex 3.60390306716689 12.5243907866457 1.69197988952874e-014
vertex 3.60390306716691 12.5243907866457 50.0
endloop
endfacet
facet normal -0.86602540378444 -0.499999999999998 1.64502548726991e-016
outer loop
vertex 3.60390306716689 12.5243907866457 1.69197988952874e-014
vertex 2.10539972661012 16.1420978746793 50.0
vertex 2.1053997266101 16.1420978746793 1.69197988952874e-014
endloop
endfacet
facet normal -1.0 -3.92088835408464e-016 4.21346863669924e-016
outer loop
vertex 1.59428814317134 20.0243757866458 50.0
vertex 2.1053997266101 16.1420978746793 1.69197988952874e-014
vertex 2.10539972661012 16.1420978746793 50.0
endloop
endfacet
facet normal -0.965925826289068 -0.258819045102522 2.89178495085602e-016
outer loop
vertex 2.1053997266101 16.1420978746793 1.69197988952874e-014
vertex 1.59428814317134 20.0243757866458 50.0
vertex 1.59428814317132 20.0243757866458 2.25597318603832e-014
endloop
endfacet
facet normal -0.277350482136238 -0.480385126563689 -0.832049782305833
outer loop
vertex 22.8942431431715 30.9362698935676 50.0
vertex 16.5942581431715 20.0243757866458 58.3999967999935
vertex 19.855370346892 32.1950122201133 50.0
endloop
endfacet
facet normal -0.965925826289068 0.258819045102521 4.65579193330624e-016
outer loop
vertex 2.10539972661012 23.9066536986123 50.0
vertex 1.59428814317132 20.0243757866458 2.25597318603832e-014
vertex 1.59428814317134 20.0243757866458 50.0
endloop
endfacet
facet normal -1.0 -3.56444395825876e-016 4.21346863669924e-016
outer loop
vertex 1.59428814317132 20.0243757866458 2.25597318603832e-014
vertex 2.10539972661012 23.9066536986123 50.0
vertex 2.1053997266101 23.9066536986123 2.25597318603832e-014
endloop
endfacet
facet normal -0.392232813367785 -0.392232813367784 -0.832049782305834
outer loop
vertex 25.5037823729186 28.9339000163929 50.0
vertex 16.5942581431715 20.0243757866458 58.3999967999935
vertex 22.8942431431715 30.9362698935676 50.0
endloop
endfacet
facet normal -0.213537932819949 0.515526173495035 0.829839933775514
outer loop
vertex 16.5942581431715 20.0243757866458 60.0
vertex 12.711980231205 34.5132342032072 50.0
vertex 9.09427314317143 33.0147308626505 50.0
endloop
endfacet
facet normal -0.86602540378444 0.499999999999998 3.90794861125375e-016
outer loop
vertex 3.60390306716691 27.5243607866459 50.0
vertex 2.1053997266101 23.9066536986123 2.25597318603832e-014
vertex 2.10539972661012 23.9066536986123 50.0
endloop
endfacet
facet normal -0.965925826289068 0.258819045102521 4.65579193330624e-016
outer loop
vertex 2.1053997266101 23.9066536986123 2.25597318603832e-014
vertex 3.60390306716691 27.5243607866459 50.0
vertex 3.60390306716689 27.5243607866459 2.25597318603832e-014
endloop
endfacet
facet normal -0.707106781186548 0.707106781186547 3.88351327398027e-016
outer loop
vertex 5.98767763857661 30.6309562912408 50.0
vertex 3.60390306716689 27.5243607866459 2.25597318603832e-014
vertex 3.60390306716691 27.5243607866459 50.0
endloop
endfacet
facet normal -0.86602540378444 0.499999999999998 3.90794861125375e-016
outer loop
vertex 3.60390306716689 27.5243607866459 2.25597318603832e-014
vertex 5.98767763857661 30.6309562912408 50.0
vertex 5.98767763857659 30.6309562912408 2.25597318603832e-014
endloop
endfacet
facet normal 0.072833812253829 -0.553227728972458 -0.829839933775514
outer loop
vertex 16.5942581431715 20.0243757866458 58.3999967999935
vertex 13.3331459394511 32.1950122201133 50.0
vertex 16.5942581431715 32.6243457866459 50.0
endloop
endfacet
facet normal 0.339689796152509 0.442692361241211 -0.829839933775513
outer loop
vertex 16.5942581431715 20.0243757866458 58.3999967999935
vertex 10.2942731431715 9.112481679724 50.0
vertex 7.68473391342445 11.1148515568987 50.0
endloop
endfacet
facet normal -0.707106781186548 0.707106781186547 3.88351327398027e-016
outer loop
vertex 5.98767763857661 30.6309562912408 50.0
vertex 9.09427314317139 33.0147308626505 2.25597318603832e-014
vertex 5.98767763857659 30.6309562912408 2.25597318603832e-014
endloop
endfacet
facet normal -0.499999999999999 0.866025403784439 3.38033395767483e-016
outer loop
vertex 9.09427314317139 33.0147308626505 2.25597318603832e-014
vertex 5.98767763857661 30.6309562912408 50.0
vertex 9.09427314317143 33.0147308626505 50.0
endloop
endfacet
facet normal 0.14356717389045 0.535799987258234 0.832049782305834
outer loop
vertex 20.4765360551381 34.5132342032072 50.0
vertex 16.5942581431715 35.024345786646 50.0
vertex 16.5942581431715 20.0243757866458 60.0
endloop
endfacet
facet normal -0.499999999999999 0.866025403784439 3.38033395767483e-016
outer loop
vertex 9.09427314317139 33.0147308626505 2.25597318603832e-014
vertex 12.711980231205 34.5132342032072 50.0
vertex 12.711980231205 34.5132342032072 1.69197988952874e-014
endloop
endfacet
facet normal -0.258819045102522 0.965925826289068 1.74783661931664e-016
outer loop
vertex 12.711980231205 34.5132342032072 50.0
vertex 9.09427314317139 33.0147308626505 2.25597318603832e-014
vertex 9.09427314317143 33.0147308626505 50.0
endloop
endfacet
facet normal -0.258819045102522 0.965925826289068 1.74783661931664e-016
outer loop
vertex 12.711980231205 34.5132342032072 50.0
vertex 16.5942581431715 35.024345786646 1.69197988952874e-014
vertex 12.711980231205 34.5132342032072 1.69197988952874e-014
endloop
endfacet
facet normal -4.54466604677992e-016 1.0 2.47659811234083e-019
outer loop
vertex 16.5942581431715 35.024345786646 1.69197988952874e-014
vertex 12.711980231205 34.5132342032072 50.0
vertex 16.5942581431715 35.024345786646 50.0
endloop
endfacet
facet normal -3.65355505721523e-016 1.0 2.4765981123402e-019
outer loop
vertex 16.5942581431715 35.024345786646 50.0
vertex 20.476536055138 34.5132342032072 1.69197988952874e-014
vertex 16.5942581431715 35.024345786646 1.69197988952874e-014
endloop
endfacet
facet normal 0.25881904510252 0.965925826289069 -1.75084031030953e-016
outer loop
vertex 20.476536055138 34.5132342032072 1.69197988952874e-014
vertex 16.5942581431715 35.024345786646 50.0
vertex 20.4765360551381 34.5132342032072 50.0
endloop
endfacet
facet normal 0.25881904510252 0.965925826289069 -1.75084031030953e-016
outer loop
vertex 20.476536055138 34.5132342032072 1.69197988952874e-014
vertex 24.0942431431717 33.0147308626505 50.0
vertex 24.0942431431716 33.0147308626505 1.12798659301916e-014
endloop
endfacet
facet normal 0.500000000000001 0.866025403784438 -4.07850084123041e-016
outer loop
vertex 24.0942431431717 33.0147308626505 50.0
vertex 20.476536055138 34.5132342032072 1.69197988952874e-014
vertex 20.4765360551381 34.5132342032072 50.0
endloop
endfacet
facet normal 0.500000000000001 0.866025403784438 -4.07850084123041e-016
outer loop
vertex 24.0942431431717 33.0147308626505 50.0
vertex 27.2008386477664 30.6309562912408 1.12798659301916e-014
vertex 24.0942431431716 33.0147308626505 1.12798659301916e-014
endloop
endfacet
facet normal 0.707106781186551 0.707106781186544 -4.98961222886197e-016
outer loop
vertex 27.2008386477664 30.6309562912408 1.12798659301916e-014
vertex 24.0942431431717 33.0147308626505 50.0
vertex 27.2008386477664 30.6309562912408 50.0
endloop
endfacet
facet normal 0.866025403784439 0.499999999999999 -4.50172653821141e-016
outer loop
vertex 29.5846132191761 27.5243607866459 5.63993296509579e-015
vertex 27.2008386477664 30.6309562912408 50.0
vertex 29.5846132191761 27.5243607866459 50.0
endloop
endfacet
facet normal 0.707106781186551 0.707106781186544 -4.98961222886197e-016
outer loop
vertex 27.2008386477664 30.6309562912408 50.0
vertex 29.5846132191761 27.5243607866459 5.63993296509579e-015
vertex 27.2008386477664 30.6309562912408 1.12798659301916e-014
endloop
endfacet
facet normal 0.866025403784439 0.499999999999999 -4.50172653821141e-016
outer loop
vertex 29.5846132191761 27.5243607866459 5.63993296509579e-015
vertex 31.0831165597329 23.9066536986123 50.0
vertex 31.0831165597329 23.9066536986123 5.63993296509579e-015
endloop
endfacet
facet normal 0.965925826289068 0.258819045102523 -4.24243161441738e-016
outer loop
vertex 31.0831165597329 23.9066536986123 50.0
vertex 29.5846132191761 27.5243607866459 5.63993296509579e-015
vertex 29.5846132191761 27.5243607866459 50.0
endloop
endfacet
facet normal 1.0 3.56444395825876e-017 -4.51286773994837e-016
outer loop
vertex 31.5942281431717 20.0243757866458 0.0
vertex 31.0831165597329 23.9066536986123 50.0
vertex 31.5942281431717 20.0243757866458 50.0
endloop
endfacet
facet normal 0.965925826289068 0.258819045102523 -4.24243161441738e-016
outer loop
vertex 31.0831165597329 23.9066536986123 50.0
vertex 31.5942281431717 20.0243757866458 0.0
vertex 31.0831165597329 23.9066536986123 5.63993296509579e-015
endloop
endfacet
facet normal 1.0 3.56444395825876e-017 -4.51286773994837e-016
outer loop
vertex 31.5942281431717 20.0243757866458 0.0
vertex 31.0831165597329 16.1420978746793 50.0
vertex 31.0831165597329 16.1420978746793 0.0
endloop
endfacet
facet normal 0.965925826289067 -0.258819045102524 -5.70703949361846e-016
outer loop
vertex 31.0831165597329 16.1420978746793 50.0
vertex 31.5942281431717 20.0243757866458 0.0
vertex 31.5942281431717 20.0243757866458 50.0
endloop
endfacet
facet normal -6.21024741874132e-016 4.28443695421878e-016 -1.0
outer loop
vertex 2.1053997266101 23.9066536986123 2.25597318603832e-014
vertex 2.1053997266101 16.1420978746793 1.69197988952874e-014
vertex 1.59428814317132 20.0243757866458 2.25597318603832e-014
endloop
endfacet
facet normal -6.21024741874132e-016 4.28443695421878e-016 -1.0
outer loop
vertex 2.1053997266101 16.1420978746793 1.69197988952874e-014
vertex 2.1053997266101 23.9066536986123 2.25597318603832e-014
vertex 3.60390306716689 27.5243607866459 2.25597318603832e-014
endloop
endfacet
facet normal -6.21024741874132e-016 4.28443695421878e-016 -1.0
outer loop
vertex 2.1053997266101 16.1420978746793 1.69197988952874e-014
vertex 3.60390306716689 27.5243607866459 2.25597318603832e-014
vertex 3.60390306716689 12.5243907866457 1.69197988952874e-014
endloop
endfacet
facet normal -6.21024741874132e-016 4.28443695421878e-016 -1.0
outer loop
vertex 3.60390306716689 12.5243907866457 1.69197988952874e-014
vertex 3.60390306716689 27.5243607866459 2.25597318603832e-014
vertex 3.99428814317149 20.0243757866458 1.69197988952874e-014
endloop
endfacet
facet normal -6.21024741874132e-016 4.28443695421878e-016 -1.0
outer loop
vertex 3.99428814317149 20.0243757866458 1.69197988952874e-014
vertex 3.60390306716689 27.5243607866459 2.25597318603832e-014
vertex 4.42362170970404 23.2854879903663 1.69197988952874e-014
endloop
endfacet
facet normal -6.21024741874132e-016 4.28443695421878e-016 -1.0
outer loop
vertex 4.42362170970404 23.2854879903663 1.69197988952874e-014
vertex 3.60390306716689 27.5243607866459 2.25597318603832e-014
vertex 5.98767763857659 30.6309562912408 2.25597318603832e-014
endloop
endfacet
facet normal -6.21024741874132e-016 4.28443695421878e-016 -1.0
outer loop
vertex 4.42362170970404 23.2854879903663 1.69197988952874e-014
vertex 5.98767763857659 30.6309562912408 2.25597318603832e-014
vertex 5.68236403624967 26.3243607866459 2.25597318603832e-014
endloop
endfacet
facet normal -6.21024741874132e-016 4.28443695421878e-016 -1.0
outer loop
vertex 5.68236403624967 26.3243607866459 2.25597318603832e-014
vertex 5.98767763857659 30.6309562912408 2.25597318603832e-014
vertex 7.68473391342443 28.9339000163929 1.69197988952874e-014
endloop
endfacet
facet normal -6.21024741874132e-016 4.28443695421878e-016 -1.0
outer loop
vertex 7.68473391342443 28.9339000163929 1.69197988952874e-014
vertex 5.98767763857659 30.6309562912408 2.25597318603832e-014
vertex 9.09427314317139 33.0147308626505 2.25597318603832e-014
endloop
endfacet
facet normal -6.21024741874132e-016 4.28443695421878e-016 -1.0
outer loop
vertex 7.68473391342443 28.9339000163929 1.69197988952874e-014
vertex 9.09427314317139 33.0147308626505 2.25597318603832e-014
vertex 10.2942731431715 30.9362698935677 1.69197988952874e-014
endloop
endfacet
facet normal -6.21024741874132e-016 4.28443695421878e-016 -1.0
outer loop
vertex 10.2942731431715 30.9362698935677 1.69197988952874e-014
vertex 9.09427314317139 33.0147308626505 2.25597318603832e-014
vertex 12.711980231205 34.5132342032072 1.69197988952874e-014
endloop
endfacet
facet normal -6.21024741874132e-016 4.28443695421878e-016 -1.0
outer loop
vertex 10.2942731431715 30.9362698935677 1.69197988952874e-014
vertex 12.711980231205 34.5132342032072 1.69197988952874e-014
vertex 13.3331459394511 32.1950122201133 1.69197988952874e-014
endloop
endfacet
facet normal -6.21024741874132e-016 4.28443695421878e-016 -1.0
outer loop
vertex 13.3331459394511 32.1950122201133 1.69197988952874e-014
vertex 12.711980231205 34.5132342032072 1.69197988952874e-014
vertex 16.5942581431715 35.024345786646 1.69197988952874e-014
endloop
endfacet
facet normal -6.21024741874132e-016 4.28443695421878e-016 -1.0
outer loop
vertex 13.3331459394511 32.1950122201133 1.69197988952874e-014
vertex 16.5942581431715 35.024345786646 1.69197988952874e-014
vertex 16.5942581431715 32.6243457866459 1.69197988952874e-014
endloop
endfacet
facet normal -6.21024741874132e-016 4.28443695421878e-016 -1.0
outer loop
vertex 16.5942581431715 32.6243457866459 1.69197988952874e-014
vertex 16.5942581431715 35.024345786646 1.69197988952874e-014
vertex 20.476536055138 34.5132342032072 1.69197988952874e-014
endloop
endfacet
facet normal -6.21024741874132e-016 4.28443695421878e-016 -1.0
outer loop
vertex 16.5942581431715 32.6243457866459 1.69197988952874e-014
vertex 20.476536055138 34.5132342032072 1.69197988952874e-014
vertex 19.8553703468919 32.1950122201133 1.12798659301916e-014
endloop
endfacet
facet normal -6.21024741874132e-016 4.28443695421878e-016 -1.0
outer loop
vertex 19.8553703468919 32.1950122201133 1.12798659301916e-014
vertex 20.476536055138 34.5132342032072 1.69197988952874e-014
vertex 22.8942431431715 30.9362698935677 1.12798659301916e-014
endloop
endfacet
facet normal -6.21024741874132e-016 4.28443695421878e-016 -1.0
outer loop
vertex 22.8942431431715 30.9362698935677 1.12798659301916e-014
vertex 20.476536055138 34.5132342032072 1.69197988952874e-014
vertex 24.0942431431716 33.0147308626505 1.12798659301916e-014
endloop
endfacet
facet normal -6.21024741874132e-016 4.28443695421878e-016 -1.0
outer loop
vertex 22.8942431431715 30.9362698935677 1.12798659301916e-014
vertex 24.0942431431716 33.0147308626505 1.12798659301916e-014
vertex 25.5037823729186 28.9339000163929 1.12798659301916e-014
endloop
endfacet
facet normal -6.21024741874132e-016 4.28443695421878e-016 -1.0
outer loop
vertex 25.5037823729186 28.9339000163929 1.12798659301916e-014
vertex 24.0942431431716 33.0147308626505 1.12798659301916e-014
vertex 27.2008386477664 30.6309562912408 1.12798659301916e-014
endloop
endfacet
facet normal -6.21024741874132e-016 4.28443695421878e-016 -1.0
outer loop
vertex 25.5037823729186 28.9339000163929 1.12798659301916e-014
vertex 27.2008386477664 30.6309562912408 1.12798659301916e-014
vertex 27.5061522500933 26.3243607866459 5.63993296509579e-015
endloop
endfacet
facet normal -6.21024741874132e-016 4.28443695421878e-016 -1.0
outer loop
vertex 27.5061522500933 26.3243607866459 5.63993296509579e-015
vertex 27.2008386477664 30.6309562912408 1.12798659301916e-014
vertex 29.5846132191761 27.5243607866459 5.63993296509579e-015
endloop
endfacet
facet normal -6.21024741874132e-016 4.28443695421878e-016 -1.0
outer loop
vertex 27.5061522500933 26.3243607866459 5.63993296509579e-015
vertex 29.5846132191761 27.5243607866459 5.63993296509579e-015
vertex 28.764894576639 23.2854879903663 5.63993296509579e-015
endloop
endfacet
facet normal -6.21024741874132e-016 4.28443695421878e-016 -1.0
outer loop
vertex 28.764894576639 23.2854879903663 5.63993296509579e-015
vertex 29.5846132191761 27.5243607866459 5.63993296509579e-015
vertex 29.1942281431715 20.0243757866458 5.63993296509579e-015
endloop
endfacet
facet normal -6.21024741874132e-016 4.28443695421878e-016 -1.0
outer loop
vertex 3.60390306716689 12.5243907866457 1.69197988952874e-014
vertex 4.42362170970399 16.7632635829254 1.69197988952874e-014
vertex 5.98767763857659 9.41779528205093 1.12798659301916e-014
endloop
endfacet
facet normal -6.21024741874132e-016 4.28443695421878e-016 -1.0
outer loop
vertex 4.42362170970399 16.7632635829254 1.69197988952874e-014
vertex 3.60390306716689 12.5243907866457 1.69197988952874e-014
vertex 3.99428814317149 20.0243757866458 1.69197988952874e-014
endloop
endfacet
facet normal -6.21024741874132e-016 4.28443695421878e-016 -1.0
outer loop
vertex 5.98767763857659 9.41779528205093 1.12798659301916e-014
vertex 4.42362170970399 16.7632635829254 1.69197988952874e-014
vertex 5.68236403624967 13.7243907866458 1.69197988952874e-014
endloop
endfacet
facet normal -6.21024741874132e-016 4.28443695421878e-016 -1.0
outer loop
vertex 5.98767763857659 9.41779528205093 1.12798659301916e-014
vertex 5.68236403624967 13.7243907866458 1.69197988952874e-014
vertex 7.68473391342443 11.1148515568987 1.12798659301916e-014
endloop
endfacet
facet normal -6.21024741874132e-016 4.28443695421878e-016 -1.0
outer loop
vertex 5.98767763857659 9.41779528205093 1.12798659301916e-014
vertex 7.68473391342443 11.1148515568987 1.12798659301916e-014
vertex 9.09427314317139 7.0340207106412 1.12798659301916e-014
endloop
endfacet
facet normal -6.21024741874132e-016 4.28443695421878e-016 -1.0
outer loop
vertex 9.09427314317139 7.0340207106412 1.12798659301916e-014
vertex 7.68473391342443 11.1148515568987 1.12798659301916e-014
vertex 10.2942731431715 9.112481679724 1.12798659301916e-014
endloop
endfacet
facet normal -6.21024741874132e-016 4.28443695421878e-016 -1.0
outer loop
vertex 9.09427314317139 7.0340207106412 1.12798659301916e-014
vertex 10.2942731431715 9.112481679724 1.12798659301916e-014
vertex 12.711980231205 5.53551737008441 5.63993296509579e-015
endloop
endfacet
facet normal -6.21024741874132e-016 4.28443695421878e-016 -1.0
outer loop
vertex 12.711980231205 5.53551737008441 5.63993296509579e-015
vertex 10.2942731431715 9.112481679724 1.12798659301916e-014
vertex 13.3331459394511 7.85373935317833 1.12798659301916e-014
endloop
endfacet
facet normal -6.21024741874132e-016 4.28443695421878e-016 -1.0
outer loop
vertex 12.711980231205 5.53551737008441 5.63993296509579e-015
vertex 13.3331459394511 7.85373935317833 1.12798659301916e-014
vertex 16.5942581431715 5.02440578664565 5.63993296509579e-015
endloop
endfacet
facet normal -6.21024741874132e-016 4.28443695421878e-016 -1.0
outer loop
vertex 16.5942581431715 5.02440578664565 5.63993296509579e-015
vertex 13.3331459394511 7.85373935317833 1.12798659301916e-014
vertex 16.5942581431715 7.42440578664583 5.63993296509579e-015
endloop
endfacet
facet normal -6.21024741874132e-016 4.28443695421878e-016 -1.0
outer loop
vertex 16.5942581431715 5.02440578664565 5.63993296509579e-015
vertex 16.5942581431715 7.42440578664583 5.63993296509579e-015
vertex 19.8553703468919 7.85373935317833 5.63993296509579e-015
endloop
endfacet
facet normal -6.21024741874132e-016 4.28443695421878e-016 -1.0
outer loop
vertex 16.5942581431715 5.02440578664565 5.63993296509579e-015
vertex 19.8553703468919 7.85373935317833 5.63993296509579e-015
vertex 20.476536055138 5.53551737008441 5.63993296509579e-015
endloop
endfacet
facet normal -6.21024741874132e-016 4.28443695421878e-016 -1.0
outer loop
vertex 20.476536055138 5.53551737008441 5.63993296509579e-015
vertex 19.8553703468919 7.85373935317833 5.63993296509579e-015
vertex 22.8942431431715 9.112481679724 5.63993296509579e-015
endloop
endfacet
facet normal -6.21024741874132e-016 4.28443695421878e-016 -1.0
outer loop
vertex 20.476536055138 5.53551737008441 5.63993296509579e-015
vertex 22.8942431431715 9.112481679724 5.63993296509579e-015
vertex 24.0942431431716 7.0340207106412 0.0
endloop
endfacet
facet normal -6.21024741874132e-016 4.28443695421878e-016 -1.0
outer loop
vertex 24.0942431431716 7.0340207106412 0.0
vertex 22.8942431431715 9.112481679724 5.63993296509579e-015
vertex 25.5037823729186 11.1148515568987 5.63993296509579e-015
endloop
endfacet
facet normal -6.21024741874132e-016 4.28443695421878e-016 -1.0
outer loop
vertex 24.0942431431716 7.0340207106412 0.0
vertex 25.5037823729186 11.1148515568987 5.63993296509579e-015
vertex 27.2008386477664 9.41779528205093 0.0
endloop
endfacet
facet normal -6.21024741874132e-016 4.28443695421878e-016 -1.0
outer loop
vertex 27.2008386477664 9.41779528205093 0.0
vertex 25.5037823729186 11.1148515568987 5.63993296509579e-015
vertex 27.5061522500933 13.7243907866458 0.0
endloop
endfacet
facet normal -6.21024741874132e-016 4.28443695421878e-016 -1.0
outer loop
vertex 27.2008386477664 9.41779528205093 0.0
vertex 27.5061522500933 13.7243907866458 0.0
vertex 29.5846132191761 12.5243907866457 0.0
endloop
endfacet
facet normal -6.21024741874132e-016 4.28443695421878e-016 -1.0
outer loop
vertex 29.5846132191761 12.5243907866457 0.0
vertex 27.5061522500933 13.7243907866458 0.0
vertex 28.764894576639 16.7632635829254 5.63993296509579e-015
endloop
endfacet
facet normal -6.21024741874132e-016 4.28443695421878e-016 -1.0
outer loop
vertex 29.5846132191761 12.5243907866457 0.0
vertex 28.764894576639 16.7632635829254 5.63993296509579e-015
vertex 29.1942281431715 20.0243757866458 5.63993296509579e-015
endloop
endfacet
facet normal -6.21024741874132e-016 4.28443695421878e-016 -1.0
outer loop
vertex 29.5846132191761 12.5243907866457 0.0
vertex 29.1942281431715 20.0243757866458 5.63993296509579e-015
vertex 29.5846132191761 27.5243607866459 5.63993296509579e-015
endloop
endfacet
facet normal -6.21024741874132e-016 4.28443695421878e-016 -1.0
outer loop
vertex 29.5846132191761 12.5243907866457 0.0
vertex 29.5846132191761 27.5243607866459 5.63993296509579e-015
vertex 31.0831165597329 23.9066536986123 5.63993296509579e-015
endloop
endfacet
facet normal -6.21024741874132e-016 4.28443695421878e-016 -1.0
outer loop
vertex 29.5846132191761 12.5243907866457 0.0
vertex 31.0831165597329 23.9066536986123 5.63993296509579e-015
vertex 31.0831165597329 16.1420978746793 0.0
endloop
endfacet
facet normal -6.21024741874132e-016 4.28443695421878e-016 -1.0
outer loop
vertex 31.0831165597329 16.1420978746793 0.0
vertex 31.0831165597329 23.9066536986123 5.63993296509579e-015
vertex 31.5942281431717 20.0243757866458 0.0
endloop
endfacet
facet normal -0.965925826289068 0.258819045102521 1.01814207350363e-015
outer loop
vertex 28.764894576639 16.7632635829254 50.0
vertex 27.5061522500933 13.7243907866458 0.0
vertex 27.5061522500934 13.7243907866458 50.0
endloop
endfacet
facet normal -0.866025403784442 0.499999999999994 8.68487671839499e-016
outer loop
vertex 27.5061522500933 13.7243907866458 0.0
vertex 28.764894576639 16.7632635829254 50.0
vertex 28.764894576639 16.7632635829254 5.63993296509579e-015
endloop
endfacet
facet normal -1.0 6.81699907016988e-015 9.02254413263401e-016
outer loop
vertex 29.1942281431715 20.0243757866458 50.0
vertex 28.764894576639 16.7632635829254 5.63993296509579e-015
vertex 28.764894576639 16.7632635829254 50.0
endloop
endfacet
facet normal -0.965925826289068 0.258819045102521 1.01814207350363e-015
outer loop
vertex 28.764894576639 16.7632635829254 5.63993296509579e-015
vertex 29.1942281431715 20.0243757866458 50.0
vertex 29.1942281431715 20.0243757866458 5.63993296509579e-015
endloop
endfacet
facet normal -0.965925826289069 -0.258819045102519 6.38165335905989e-016
outer loop
vertex 28.764894576639 23.2854879903662 50.0
vertex 29.1942281431715 20.0243757866458 5.63993296509579e-015
vertex 29.1942281431715 20.0243757866458 50.0
endloop
endfacet
facet normal -1.0 6.7457101910047e-015 9.02254413263401e-016
outer loop
vertex 29.1942281431715 20.0243757866458 5.63993296509579e-015
vertex 28.764894576639 23.2854879903662 50.0
vertex 28.764894576639 23.2854879903663 5.63993296509579e-015
endloop
endfacet
facet normal -0.866025403784438 -0.5 4.68925660271639e-016
outer loop
vertex 27.5061522500934 26.3243607866458 50.0
vertex 28.764894576639 23.2854879903663 5.63993296509579e-015
vertex 28.764894576639 23.2854879903662 50.0
endloop
endfacet
facet normal -0.965925826289069 -0.258819045102519 6.38165335905989e-016
outer loop
vertex 28.764894576639 23.2854879903663 5.63993296509579e-015
vertex 27.5061522500934 26.3243607866458 50.0
vertex 27.5061522500933 26.3243607866459 5.63993296509579e-015
endloop
endfacet
facet normal -0.707106781186548 -0.707106781186547 3.19132323621135e-016
outer loop
vertex 25.5037823729186 28.9339000163929 50.0
vertex 27.5061522500933 26.3243607866459 5.63993296509579e-015
vertex 27.5061522500934 26.3243607866458 50.0
endloop
endfacet
facet normal -0.866025403784438 -0.500000000000001 4.68925660271639e-016
outer loop
vertex 27.5061522500933 26.3243607866459 5.63993296509579e-015
vertex 25.5037823729186 28.9339000163929 50.0
vertex 25.5037823729186 28.9339000163929 1.12798659301916e-014
endloop
endfacet
facet normal -0.707106781186548 -0.707106781186547 3.19132323621135e-016
outer loop
vertex 25.5037823729186 28.9339000163929 50.0
vertex 22.8942431431715 30.9362698935677 1.12798659301916e-014
vertex 25.5037823729186 28.9339000163929 1.12798659301916e-014
endloop
endfacet
facet normal -0.5 -0.866025403784439 1.65664876298725e-017
outer loop
vertex 22.8942431431715 30.9362698935677 1.12798659301916e-014
vertex 25.5037823729186 28.9339000163929 50.0
vertex 22.8942431431715 30.9362698935676 50.0
endloop
endfacet
facet normal -0.5 -0.866025403784438 1.65664876298728e-017
outer loop
vertex 22.8942431431715 30.9362698935676 50.0
vertex 19.8553703468919 32.1950122201133 1.12798659301916e-014
vertex 22.8942431431715 30.9362698935677 1.12798659301916e-014
endloop
endfacet
facet normal -0.258819045102523 -0.965925826289068 -3.54303815597333e-017
outer loop
vertex 19.8553703468919 32.1950122201133 1.12798659301916e-014
vertex 22.8942431431715 30.9362698935676 50.0
vertex 19.855370346892 32.1950122201133 50.0
endloop
endfacet
facet normal -0.258819045102523 -0.965925826289068 -3.54303815597332e-017
outer loop
vertex 19.855370346892 32.1950122201133 50.0
vertex 16.5942581431715 32.6243457866459 1.69197988952874e-014
vertex 19.8553703468919 32.1950122201133 1.12798659301916e-014
endloop
endfacet
facet normal 6.68333242173518e-016 -1.0 -1.4875906471442e-017
outer loop
vertex 16.5942581431715 32.6243457866459 1.69197988952874e-014
vertex 19.855370346892 32.1950122201133 50.0
vertex 16.5942581431715 32.6243457866459 50.0
endloop
endfacet
facet normal 6.68333242173518e-016 -1.0 -1.4875906471442e-017
outer loop
vertex 16.5942581431715 32.6243457866459 50.0
vertex 13.3331459394511 32.1950122201133 1.69197988952874e-014
vertex 16.5942581431715 32.6243457866459 1.69197988952874e-014
endloop
endfacet
facet normal 0.258819045102522 -0.965925826289068 -4.43834236818669e-016
outer loop
vertex 13.3331459394511 32.1950122201133 1.69197988952874e-014
vertex 16.5942581431715 32.6243457866459 50.0
vertex 13.3331459394511 32.1950122201133 50.0
endloop
endfacet
facet normal 0.258819045102521 -0.965925826289068 -4.43834236818668e-016
outer loop
vertex 13.3331459394511 32.1950122201133 50.0
vertex 10.2942731431715 30.9362698935677 1.69197988952874e-014
vertex 13.3331459394511 32.1950122201133 1.69197988952874e-014
endloop
endfacet
facet normal 0.500000000000001 -0.866025403784438 -7.72943936750088e-016
outer loop
vertex 10.2942731431715 30.9362698935677 1.69197988952874e-014
vertex 13.3331459394511 32.1950122201133 50.0
vertex 10.2942731431715 30.9362698935676 50.0
endloop
endfacet
facet normal 0.500000000000001 -0.866025403784438 -7.72943936750088e-016
outer loop
vertex 10.2942731431715 30.9362698935676 50.0
vertex 7.68473391342443 28.9339000163929 1.69197988952874e-014
vertex 10.2942731431715 30.9362698935677 1.69197988952874e-014
endloop
endfacet
facet normal 0.707106781186546 -0.707106781186549 -5.6944642772639e-016
outer loop
vertex 7.68473391342443 28.9339000163929 1.69197988952874e-014
vertex 10.2942731431715 30.9362698935676 50.0
vertex 7.68473391342445 28.9339000163929 50.0
endloop
endfacet
facet normal 0.965925826289067 -0.258819045102524 -5.70703949361846e-016
outer loop
vertex 31.0831165597329 16.1420978746793 0.0
vertex 29.5846132191761 12.5243907866457 50.0
vertex 29.5846132191761 12.5243907866457 0.0
endloop
endfacet
facet normal 0.866025403784439 -0.5 -8.1500228510959e-016
outer loop
vertex 29.5846132191761 12.5243907866457 50.0
vertex 31.0831165597329 16.1420978746793 0.0
vertex 31.0831165597329 16.1420978746793 50.0
endloop
endfacet
facet normal 0.70710678118655 -0.707106781186545 -1.04752067839045e-015
outer loop
vertex 27.2008386477664 9.41779528205093 0.0
vertex 29.5846132191761 12.5243907866457 50.0
vertex 27.2008386477664 9.41779528205088 50.0
endloop
endfacet
facet normal 0.866025403784439 -0.5 -8.1500228510959e-016
outer loop
vertex 29.5846132191761 12.5243907866457 50.0
vertex 27.2008386477664 9.41779528205093 0.0
vertex 29.5846132191761 12.5243907866457 0.0
endloop
endfacet
facet normal 0.70710678118655 -0.707106781186545 -1.04752067839045e-015
outer loop
vertex 27.2008386477664 9.41779528205088 50.0
vertex 24.0942431431716 7.0340207106412 0.0
vertex 27.2008386477664 9.41779528205093 0.0
endloop
endfacet
facet normal 0.5 -0.866025403784439 -9.32604866744194e-016
outer loop
vertex 24.0942431431716 7.0340207106412 0.0
vertex 27.2008386477664 9.41779528205088 50.0
vertex 24.0942431431716 7.03402071064117 50.0
endloop
endfacet
facet normal 0.5 -0.866025403784439 -9.32604866744194e-016
outer loop
vertex 24.0942431431716 7.03402071064117 50.0
vertex 20.476536055138 5.53551737008441 5.63993296509579e-015
vertex 24.0942431431716 7.0340207106412 0.0
endloop
endfacet
facet normal 0.258819045102519 -0.965925826289069 -6.69746049637365e-016
outer loop
vertex 20.476536055138 5.53551737008441 5.63993296509579e-015
vertex 24.0942431431716 7.03402071064117 50.0
vertex 20.476536055138 5.53551737008438 50.0
endloop
endfacet
facet normal 0.258819045102519 -0.965925826289069 -6.69746049637365e-016
outer loop
vertex 20.476536055138 5.53551737008438 50.0
vertex 16.5942581431715 5.02440578664565 5.63993296509579e-015
vertex 20.476536055138 5.53551737008441 5.63993296509579e-015
endloop
endfacet
facet normal 1.06933318747763e-016 -1.0 -4.65891195683362e-016
outer loop
vertex 16.5942581431715 5.02440578664565 5.63993296509579e-015
vertex 20.476536055138 5.53551737008438 50.0
vertex 16.5942581431715 5.02440578664563 50.0
endloop
endfacet
facet normal 2.04955527599879e-016 -1.0 -4.65891195683362e-016
outer loop
vertex 16.5942581431715 5.02440578664563 50.0
vertex 12.711980231205 5.53551737008441 5.63993296509579e-015
vertex 16.5942581431715 5.02440578664565 5.63993296509579e-015
endloop
endfacet
facet normal -0.258819045102519 -0.965925826289069 -2.60331417135208e-016
outer loop
vertex 12.711980231205 5.53551737008441 5.63993296509579e-015
vertex 16.5942581431715 5.02440578664563 50.0
vertex 12.711980231205 5.53551737008438 50.0
endloop
endfacet
facet normal -0.258819045102519 -0.965925826289069 -2.60331417135208e-016
outer loop
vertex 12.711980231205 5.53551737008438 50.0
vertex 9.09427314317139 7.0340207106412 1.12798659301916e-014
vertex 12.711980231205 5.53551737008441 5.63993296509579e-015
endloop
endfacet
facet normal -0.500000000000001 -0.866025403784438 -1.42486110978831e-016
outer loop
vertex 9.09427314317139 7.0340207106412 1.12798659301916e-014
vertex 12.711980231205 5.53551737008438 50.0
vertex 9.09427314317143 7.03402071064117 50.0
endloop
endfacet
facet normal -0.143567173890453 -0.535799987258233 -0.832049782305834
outer loop
vertex 19.855370346892 32.1950122201133 50.0
vertex 16.5942581431715 20.0243757866458 58.3999967999935
vertex 16.5942581431715 32.6243457866459 50.0
endloop
endfacet
facet normal -0.553227728972459 0.0728338122538275 0.829839933775514
outer loop
vertex 16.5942581431715 20.0243757866458 60.0
vertex 2.10539972661012 23.9066536986123 50.0
vertex 1.59428814317134 20.0243757866458 50.0
endloop
endfacet
facet normal 0.554700964272477 -5.71065357269164e-016 0.832049782305833
outer loop
vertex 31.5942281431717 20.0243757866458 50.0
vertex 16.5942581431715 20.0243757866458 60.0
vertex 31.0831165597329 16.1420978746793 50.0
endloop
endfacet
facet normal 0.392232813367788 0.392232813367781 0.832049782305834
outer loop
vertex 27.2008386477664 30.6309562912408 50.0
vertex 24.0942431431717 33.0147308626505 50.0
vertex 16.5942581431715 20.0243757866458 60.0
endloop
endfacet
facet normal 0.515526173495037 -0.213537932819945 -0.829839933775514
outer loop
vertex 16.5942581431715 20.0243757866458 58.3999967999935
vertex 4.42362170970406 23.2854879903663 50.0
vertex 5.68236403624969 26.3243607866459 50.0
endloop
endfacet
facet normal -0.515526173495036 0.213537932819948 0.829839933775514
outer loop
vertex 16.5942581431715 20.0243757866458 60.0
vertex 3.60390306716691 27.5243607866459 50.0
vertex 2.10539972661012 23.9066536986123 50.0
endloop
endfacet
facet normal 0.339689796152508 -0.44269236124121 -0.829839933775514
outer loop
vertex 16.5942581431715 20.0243757866458 58.3999967999935
vertex 7.68473391342445 28.9339000163929 50.0
vertex 10.2942731431715 30.9362698935676 50.0
endloop
endfacet
facet normal 0.21353793281995 -0.515526173495035 -0.829839933775514
outer loop
vertex 16.5942581431715 20.0243757866458 58.3999967999935
vertex 10.2942731431715 30.9362698935676 50.0
vertex 13.3331459394511 32.1950122201133 50.0
endloop
endfacet
facet normal -0.339689796152509 0.442692361241208 0.829839933775514
outer loop
vertex 16.5942581431715 20.0243757866458 60.0
vertex 9.09427314317143 33.0147308626505 50.0
vertex 5.98767763857661 30.6309562912408 50.0
endloop
endfacet
facet normal -0.442692361241209 0.339689796152508 0.829839933775514
outer loop
vertex 16.5942581431715 20.0243757866458 60.0
vertex 5.98767763857661 30.6309562912408 50.0
vertex 3.60390306716691 27.5243607866459 50.0
endloop
endfacet
facet normal 0.442692361241205 -0.339689796152513 -0.829839933775514
outer loop
vertex 16.5942581431715 20.0243757866458 58.3999967999935
vertex 5.68236403624969 26.3243607866459 50.0
vertex 7.68473391342445 28.9339000163929 50.0
endloop
endfacet
facet normal 0.553227728972459 -0.0728338122538279 -0.829839933775514
outer loop
vertex 16.5942581431715 20.0243757866458 58.3999967999935
vertex 3.99428814317152 20.0243757866458 50.0
vertex 4.42362170970406 23.2854879903663 50.0
endloop
endfacet
facet normal -0.553227728972459 -0.0728338122538292 0.829839933775514
outer loop
vertex 16.5942581431715 20.0243757866458 60.0
vertex 1.59428814317134 20.0243757866458 50.0
vertex 2.10539972661012 16.1420978746793 50.0
endloop
endfacet
facet normal 0.55322772897246 0.0728338122538259 -0.829839933775514
outer loop
vertex 16.5942581431715 20.0243757866458 58.3999967999935
vertex 4.42362170970404 16.7632635829254 50.0
vertex 3.99428814317152 20.0243757866458 50.0
endloop
endfacet
facet normal -0.515526173495035 -0.213537932819952 0.829839933775514
outer loop
vertex 16.5942581431715 20.0243757866458 60.0
vertex 2.10539972661012 16.1420978746793 50.0
vertex 3.60390306716691 12.5243907866457 50.0
endloop
endfacet
facet normal 0.515526173495035 0.213537932819951 -0.829839933775514
outer loop
vertex 16.5942581431715 20.0243757866458 58.3999967999935
vertex 5.68236403624969 13.7243907866458 50.0
vertex 4.42362170970404 16.7632635829254 50.0
endloop
endfacet
facet normal -0.442692361241213 -0.339689796152506 0.829839933775514
outer loop
vertex 16.5942581431715 20.0243757866458 60.0
vertex 3.60390306716691 12.5243907866457 50.0
vertex 5.98767763857661 9.41779528205088 50.0
endloop
endfacet
facet normal 0.442692361241209 0.33968979615251 -0.829839933775514
outer loop
vertex 16.5942581431715 20.0243757866458 58.3999967999935
vertex 7.68473391342445 11.1148515568987 50.0
vertex 5.68236403624969 13.7243907866458 50.0
endloop
endfacet
facet normal -0.339689796152509 -0.44269236124121 0.829839933775514
outer loop
vertex 16.5942581431715 20.0243757866458 60.0
vertex 5.98767763857661 9.41779528205088 50.0
vertex 9.09427314317143 7.03402071064117 50.0
endloop
endfacet
facet normal -0.143567173890452 0.535799987258235 -0.832049782305833
outer loop
vertex 19.8553703468919 7.85373935317833 50.0
vertex 16.5942581431715 7.42440578664578 50.0
vertex 16.5942581431715 20.0243757866458 58.3999967999935
endloop
endfacet
facet normal -0.535799987258236 0.143567173890451 -0.832049782305832
outer loop
vertex 28.764894576639 16.7632635829254 50.0
vertex 27.5061522500934 13.7243907866458 50.0
vertex 16.5942581431715 20.0243757866458 58.3999967999935
endloop
endfacet
facet normal 0.277350482136238 0.480385126563688 0.832049782305834
outer loop
vertex 24.0942431431717 33.0147308626505 50.0
vertex 20.4765360551381 34.5132342032072 50.0
vertex 16.5942581431715 20.0243757866458 60.0
endloop
endfacet
facet normal 4.18781261997387e-016 0.554700964272476 0.832049782305834
outer loop
vertex 16.5942581431715 35.024345786646 50.0
vertex 12.711980231205 34.5132342032072 50.0
vertex 16.5942581431715 20.0243757866458 60.0
endloop
endfacet
facet normal -0.48038512656369 -0.277350482136237 -0.832049782305833
outer loop
vertex 27.5061522500934 26.3243607866458 50.0
vertex 16.5942581431715 20.0243757866458 58.3999967999935
vertex 25.5037823729186 28.9339000163929 50.0
endloop
endfacet
facet normal 0.480385126563691 0.277350482136237 0.832049782305833
outer loop
vertex 29.5846132191761 27.5243607866459 50.0
vertex 27.2008386477664 30.6309562912408 50.0
vertex 16.5942581431715 20.0243757866458 60.0
endloop
endfacet
facet normal -0.535799987258235 -0.143567173890449 -0.832049782305833
outer loop
vertex 28.764894576639 23.2854879903662 50.0
vertex 16.5942581431715 20.0243757866458 58.3999967999935
vertex 27.5061522500934 26.3243607866458 50.0
endloop
endfacet
facet normal 0.535799987258235 0.143567173890451 0.832049782305833
outer loop
vertex 31.0831165597329 23.9066536986123 50.0
vertex 29.5846132191761 27.5243607866459 50.0
vertex 16.5942581431715 20.0243757866458 60.0
endloop
endfacet
facet normal -0.554700964272477 4.24491915570077e-015 -0.832049782305833
outer loop
vertex 29.1942281431715 20.0243757866458 50.0
vertex 16.5942581431715 20.0243757866458 58.3999967999935
vertex 28.764894576639 23.2854879903662 50.0
endloop
endfacet
facet normal 0.554700964272477 -5.71065357269164e-016 0.832049782305833
outer loop
vertex 31.5942281431717 20.0243757866458 50.0
vertex 31.0831165597329 23.9066536986123 50.0
vertex 16.5942581431715 20.0243757866458 60.0
endloop
endfacet
facet normal -0.554700964272477 4.24491915570077e-015 -0.832049782305833
outer loop
vertex 29.1942281431715 20.0243757866458 50.0
vertex 28.764894576639 16.7632635829254 50.0
vertex 16.5942581431715 20.0243757866458 58.3999967999935
endloop
endfacet
facet normal 0.143567173890449 -0.535799987258236 0.832049782305833
outer loop
vertex 20.476536055138 5.53551737008438 50.0
vertex 16.5942581431715 20.0243757866458 60.0
vertex 16.5942581431715 5.02440578664563 50.0
endloop
endfacet
facet normal -0.480385126563692 0.277350482136236 -0.832049782305832
outer loop
vertex 27.5061522500934 13.7243907866458 50.0
vertex 25.5037823729186 11.1148515568987 50.0
vertex 16.5942581431715 20.0243757866458 58.3999967999935
endloop
endfacet
facet normal 0.480385126563691 -0.277350482136237 0.832049782305832
outer loop
vertex 29.5846132191761 12.5243907866457 50.0
vertex 16.5942581431715 20.0243757866458 60.0
vertex 27.2008386477664 9.41779528205088 50.0
endloop
endfacet
facet normal -0.392232813367786 0.392232813367784 -0.832049782305833
outer loop
vertex 25.5037823729186 11.1148515568987 50.0
vertex 22.8942431431715 9.112481679724 50.0
vertex 16.5942581431715 20.0243757866458 58.3999967999935
endloop
endfacet
facet normal 0.392232813367787 -0.392232813367784 0.832049782305833
outer loop
vertex 27.2008386477664 9.41779528205088 50.0
vertex 16.5942581431715 20.0243757866458 60.0
vertex 24.0942431431716 7.03402071064117 50.0
endloop
endfacet
facet normal -0.277350482136238 0.480385126563691 -0.832049782305832
outer loop
vertex 22.8942431431715 9.112481679724 50.0
vertex 19.8553703468919 7.85373935317833 50.0
vertex 16.5942581431715 20.0243757866458 58.3999967999935
endloop
endfacet
facet normal 0.277350482136238 -0.48038512656369 0.832049782305833
outer loop
vertex 24.0942431431716 7.03402071064117 50.0
vertex 16.5942581431715 20.0243757866458 60.0
vertex 20.476536055138 5.53551737008438 50.0
endloop
endfacet
endsolid simple_cap
